# xmcd CD database file
#
# Track frame offsets:
#	182
#	11372
#	21890
#	35890
#	46680
#	56670
#	68320
#	77555
#	88897
#	100442
#	112147
#	122760
#	131460
#	139975
#	153425
#	162897
#
# Disc length: 2288 seconds
#
# Revision: 1
# Processed by: cddbd v1.5.2PL0 Copyright (c) Steve Scherf et al.
# Submitted via: CDex 1.51
#
DISCID=d108ee10
DTITLE=Grandpa Jones - Country Music Hall of Fame Series
DYEAR=1992
DGENRE=Country
TTITLE0=Rattler's Pup
TTITLE1=Eight More Miles To Louisville
TTITLE2=Dark As A Dungeon
TTITLE3=When The Jones' Get Together
TTITLE4=Mountain Dew
TTITLE5=Falling Leaves
TTITLE6=Daylight Saving Time
TTITLE7=It Takes A Lot Of Living
TTITLE8=The Huntin's Over For Tonight
TTITLE9=The All-American Boy
TTITLE10=Don't Look Back
TTITLE11=Waiting For A Train
TTITLE12=Old Towzer
TTITLE13=Don't Bring Your Banjo Home
TTITLE14=Pickin' Time
TTITLE15=Cindy
EXTD=YEAR: 1992
EXTT0=
EXTT1=
EXTT2=
EXTT3=
EXTT4=
EXTT5=
EXTT6=
EXTT7=
EXTT8=
EXTT9=
EXTT10=
EXTT11=
EXTT12=
EXTT13=
EXTT14=
EXTT15=
PLAYORDER=
